<?xml version="1.0" standalone="no"?>
<!DOCTYPE svg PUBLIC "-//W3C//DTD SVG 20010904//EN"
 "http://www.w3.org/TR/2001/REC-SVG-20010904/DTD/svg10.dtd">
<svg version="1.0" xmlns="http://www.w3.org/2000/svg"
 width="309.000000pt" height="309.000000pt" viewBox="0 0 309.000000 309.000000"
 preserveAspectRatio="xMidYMid meet">

<g transform="translate(0.000000,309.000000) scale(0.100000,-0.100000)"
fill="#000000" stroke="none">
<path d="M0 3078 c0 -7 10 -14 23 -14 92 -6 179 -68 144 -103 -6 -6 -21 -11
-34 -11 -12 0 -26 -6 -30 -13 -11 -18 -39 -28 -58 -21 -22 9 -7 26 16 19 22
-7 22 -7 8 34 -8 22 -16 30 -26 27 -8 -3 -17 -6 -19 -6 -2 0 -4 -7 -4 -15 0
-8 -4 -15 -9 -15 -5 0 -9 -47 -10 -105 l-2 -105 45 0 c48 0 76 -19 76 -51 0
-14 -6 -18 -25 -17 -14 1 -25 6 -25 10 0 4 -7 8 -15 8 -9 0 -12 6 -8 18 6 15
3 14 -17 -3 -13 -11 -20 -14 -16 -7 4 6 2 12 -3 12 -6 0 -11 -6 -11 -13 0 -16
60 -49 94 -50 14 -1 26 -7 26 -12 0 -6 9 -11 20 -11 11 0 20 6 20 13 0 19 17
16 24 -4 4 -9 2 -20 -5 -23 -8 -6 -8 -13 0 -28 16 -30 14 -44 -6 -41 -27 4
-63 -11 -63 -26 0 -15 -46 -29 -62 -19 -7 5 -8 2 -3 -6 6 -10 2 -11 -19 -6
l-26 6 0 -199 0 -199 139 -7 c76 -4 144 -11 151 -15 9 -5 10 -42 5 -154 l-8
-147 -143 7 -144 7 0 -382 c0 -370 1 -381 19 -381 11 0 23 -5 26 -10 4 -7 -2
-9 -19 -4 -17 4 -26 2 -26 -6 0 -6 4 -9 9 -6 4 3 17 -2 27 -10 18 -15 18 -15
-8 -11 -24 4 -28 1 -28 -19 0 -19 5 -24 24 -24 14 0 28 -5 31 -11 11 -17 -2
-22 -25 -9 -25 13 -42 4 -20 -11 11 -8 12 -12 3 -16 -7 -2 -13 -22 -13 -43 l0
-38 173 1 c131 2 171 5 169 15 -1 7 8 12 24 12 17 0 23 -4 18 -12 -5 -8 -2 -9
12 -3 10 4 46 10 78 13 58 5 59 5 30 17 -27 13 -25 13 29 10 31 -2 57 -2 57 1
0 22 -120 38 -185 24 -23 -5 -65 1 -65 9 0 5 18 7 40 4 21 -3 47 -2 57 2 24
11 -91 31 -169 30 -32 0 -58 3 -58 7 0 4 -17 9 -37 11 -21 2 -6 3 32 2 39 -2
64 -1 58 2 -24 9 -13 23 17 23 17 0 30 -4 30 -10 0 -5 6 -7 14 -4 15 6 106 -2
351 -31 238 -27 430 -48 454 -49 20 -1 27 7 40 46 22 65 31 69 31 14 0 -91 27
-165 150 -421 77 -158 101 -189 172 -225 35 -17 52 -28 38 -24 -14 4 -31 7
-37 7 -7 0 -13 4 -13 9 0 4 -7 8 -16 8 -8 0 -13 -4 -10 -9 3 -5 -5 -8 -18 -7
-13 0 -22 3 -20 5 2 2 -3 13 -13 23 -9 10 -11 18 -5 18 6 0 14 -4 17 -10 3 -5
11 -10 17 -10 6 0 -1 9 -15 20 -39 31 -23 38 -280 -117 -75 -46 -144 -83 -153
-83 -13 0 -12 -3 4 -18 12 -9 25 -37 29 -62 l9 -45 52 -3 53 -3 -6 38 c-5 29
-4 34 4 23 10 -13 12 -13 21 0 7 11 10 11 10 2 0 -10 5 -10 21 -2 11 6 30 10
42 8 12 -2 32 7 47 20 15 15 33 22 47 19 12 -2 24 -1 25 3 2 4 13 10 25 14 17
5 28 1 44 -18 28 -32 35 -32 43 -2 6 23 36 45 36 26 0 -6 14 -10 31 -10 18 0
28 4 24 10 -4 6 -3 24 0 42 5 22 9 27 16 17 7 -12 9 -12 9 0 0 11 3 11 16 0 9
-7 38 -12 70 -11 47 1 54 -1 54 -18 0 -10 -5 -22 -10 -25 -6 -4 -18 -24 -26
-45 -9 -21 -27 -46 -40 -55 -41 -27 -28 -35 59 -35 l82 0 20 43 c20 42 32 57
49 57 9 0 3 -51 -9 -82 -6 -16 0 -18 65 -18 l71 0 22 49 c17 38 29 51 52 57
45 11 99 11 108 -1 6 -7 10 -6 14 3 2 6 11 12 18 12 18 0 23 33 30 215 3 83
10 180 15 217 10 71 -3 129 -38 171 -8 9 -11 17 -6 17 5 1 -2 7 -16 15 -30 17
-13 20 27 4 15 -6 94 -17 174 -25 80 -7 152 -14 160 -16 10 -2 15 10 17 43 l3
47 65 -6 c41 -3 80 0 105 8 34 12 42 12 49 0 7 -11 14 -12 35 -2 32 15 169 16
160 2 -6 -9 25 -15 50 -10 6 1 5 -3 -1 -10 -12 -12 -64 -3 -64 11 0 5 -8 9
-17 8 -11 0 -13 -3 -5 -6 6 -2 10 -9 6 -14 -3 -5 4 -9 15 -9 18 0 21 -6 21
-45 0 -29 -4 -45 -12 -46 -28 -1 29 -18 65 -18 l37 -1 0 280 c0 247 -2 280
-16 280 -8 0 -12 -4 -9 -10 4 -6 -1 -7 -10 -3 -10 3 -20 2 -24 -3 -3 -5 -31
-17 -61 -28 -30 -10 -73 -26 -95 -36 -22 -9 -60 -25 -85 -35 -25 -9 -53 -21
-62 -26 -24 -12 -24 7 0 20 15 9 15 12 2 21 -11 7 -6 10 23 10 20 0 37 3 37 8
0 4 22 13 50 19 27 7 64 18 82 26 71 31 90 37 109 37 11 0 18 4 15 8 -3 5 5 8
17 8 l22 -1 2 456 2 456 -24 -5 c-21 -4 -25 -1 -25 21 0 30 15 43 26 25 13
-21 22 29 23 127 1 59 -3 95 -11 103 -9 9 -9 12 0 12 7 0 12 5 12 10 0 6 -7
10 -17 10 -14 0 -14 2 2 20 21 23 9 27 -20 6 -11 -7 -33 -16 -48 -20 -23 -6
-30 -3 -34 13 -3 11 -16 22 -29 25 -13 4 -24 11 -24 16 0 6 -7 10 -15 10 -8 0
-14 5 -13 12 3 10 -18 13 -64 9 -11 0 -18 -9 -18 -23 0 -32 -7 -18 -13 25 -5
36 5 57 18 37 4 -6 11 -7 17 -4 6 4 14 0 19 -7 7 -11 9 -10 9 4 0 9 3 16 8 16
25 -4 32 4 31 34 -2 31 -2 31 -6 4 -4 -27 -6 -28 -56 -26 l-52 3 0 -34 c0 -35
-12 -48 -46 -49 -10 -1 -15 7 -15 22 1 12 -4 21 -9 20 -6 -1 -11 12 -11 28 -1
16 3 29 8 29 6 0 5 6 -2 15 -9 10 -10 35 -5 85 6 60 5 71 -9 76 -22 8 -33 -3
-18 -18 7 -7 12 -38 12 -70 0 -48 -3 -58 -17 -58 -17 -1 -17 -1 0 -11 9 -5 17
-15 17 -21 0 -6 -10 -2 -23 10 -13 12 -30 22 -39 22 -9 0 -19 10 -23 23 -6 19
-8 19 -12 4 -4 -14 -12 -16 -46 -11 -23 4 -46 10 -51 15 -12 10 -15 88 -5 95
5 3 9 14 9 25 0 13 7 19 23 19 16 0 18 3 9 9 -11 7 -10 10 3 15 9 3 24 6 33 6
15 0 15 -2 2 -10 -13 -8 -13 -10 2 -10 9 0 24 3 34 7 16 6 16 7 -2 14 -18 7
-18 8 4 15 26 8 29 24 5 25 -12 1 -10 4 7 9 21 7 22 8 5 9 -19 1 -18 3 5 22
14 11 20 18 13 15 -6 -4 -14 -2 -18 4 -3 5 6 12 20 16 36 9 22 22 -82 73 l-82
41 -402 0 c-378 0 -401 -1 -394 -17 7 -20 8 -23 6 -40 0 -7 -8 -13 -16 -13
-18 0 -20 16 -2 23 8 4 7 6 -4 6 -8 1 -21 -5 -28 -11 -11 -11 -13 -10 -8 5 4
9 4 17 1 17 -8 0 -43 -43 -44 -52 0 -16 19 -7 24 10 6 20 -1 -38 -10 -85 -5
-26 -2 -32 15 -38 12 -3 21 -11 21 -16 0 -6 5 -7 10 -4 6 3 10 0 10 -8 0 -21
-12 -28 -27 -16 -10 9 -13 8 -13 -4 0 -25 -46 -18 -59 10 -9 19 -14 22 -30 14
-17 -9 -18 -8 -13 12 3 12 10 25 16 29 6 5 1 8 -11 8 -19 0 -23 -6 -24 -32 -1
-24 -3 -27 -6 -10 -5 25 -13 28 -31 10 -10 -10 -14 -10 -21 0 -6 10 -10 10
-21 -3 -10 -12 -10 -18 0 -30 23 -27 -2 -16 -26 13 -22 24 -24 36 -24 125 0
90 -1 97 -20 97 -19 0 -20 -7 -20 -105 0 -77 -3 -105 -12 -105 -8 0 -13 15
-14 37 0 21 -2 68 -2 106 -2 61 -4 67 -24 67 -21 0 -21 -2 -15 -115 4 -71 2
-126 -4 -143 -7 -18 -7 -28 0 -30 16 -5 13 -22 -4 -22 -13 0 -15 24 -15 155 0
148 -1 155 -20 155 -11 0 -20 -6 -20 -12 -1 -7 0 -91 0 -185 0 -101 -3 -173
-9 -173 -17 0 -21 33 -21 201 l0 169 -25 0 c-20 0 -25 -5 -25 -26 0 -22 -2
-24 -14 -14 -8 6 -12 18 -9 26 3 8 0 14 -7 14 -6 0 -8 -4 -5 -10 3 -5 -3 -10
-14 -10 -12 0 -21 4 -21 8 0 5 -21 9 -46 11 -44 2 -46 1 -29 -15 16 -17 16
-18 -6 -26 -12 -5 -29 -7 -38 -6 -12 3 -12 5 2 20 23 22 21 28 -8 28 -25 0
-50 -32 -41 -53 3 -9 5 -9 5 1 1 6 6 12 12 12 6 0 8 -9 4 -20 -4 -11 -2 -20 4
-20 6 0 11 -7 11 -15 0 -8 5 -15 10 -15 6 0 10 -7 10 -16 0 -8 -4 -13 -9 -10
-5 4 -20 2 -33 -3 -17 -7 -18 -10 -5 -10 9 -1 17 -5 17 -11 0 -17 -25 -11 -43
10 -9 11 -26 20 -36 20 -27 0 -35 17 -11 23 33 9 24 30 -9 24 -24 -5 -31 -2
-36 12 -7 24 -87 37 -138 23 -40 -11 -49 -8 -40 15 4 10 2 14 -7 11 -22 -7
-20 -50 2 -56 11 -3 17 -10 14 -18 -6 -16 3 -18 24 -4 11 7 17 5 22 -8 6 -16
7 -16 7 0 1 11 6 15 16 12 8 -4 15 -2 15 4 0 18 29 22 45 6 8 -9 15 -11 15 -5
0 22 19 10 34 -21 20 -39 20 -48 1 -48 -8 0 -15 -8 -15 -18 0 -10 -14 -26 -31
-36 -34 -20 -35 -47 -1 -52 19 -3 22 1 22 27 0 26 3 29 14 20 11 -9 15 -5 21
21 l8 33 6 -30 c6 -25 2 -35 -25 -62 -22 -22 -31 -40 -30 -58 2 -14 -1 -25 -5
-25 -5 0 -9 11 -9 25 0 14 -4 25 -10 25 -5 0 -10 -4 -10 -8 0 -4 -14 -12 -32
-17 -35 -11 -50 -35 -22 -35 16 0 15 -2 -4 -20 -26 -25 -32 -25 -32 -2 0 14
-2 15 -10 2 -6 -10 -10 -11 -10 -2 0 6 -9 12 -19 12 -11 0 -22 -6 -25 -12 -4
-9 -5 -8 -4 2 1 8 -4 28 -10 43 -7 16 -12 45 -13 65 -1 20 -4 48 -9 62 -9 32
-16 15 -25 -65 -3 -33 -10 -64 -15 -69 -7 -7 -10 -5 -10 3 0 28 -20 -3 -21
-32 0 -27 -2 -29 -9 -12 -5 11 -9 65 -9 120 1 55 -2 124 -6 153 -6 38 -4 52 4
52 8 0 10 -8 6 -21 -6 -19 -4 -21 13 -17 12 3 23 1 26 -6 5 -12 7 1 10 54 l1
35 -128 3 c-76 1 -135 -2 -147 -8 -14 -7 -20 -7 -20 0 0 6 -38 10 -100 10 -73
0 -100 -3 -100 -12z m404 -70 c-9 -29 -56 -106 -49 -80 4 13 8 34 9 45 2 12 9
40 16 62 12 37 13 38 22 16 4 -13 6 -32 2 -43z m1464 22 c0 -16 -4 -30 -9 -30
-5 0 -9 14 -9 30 0 17 4 30 8 30 5 0 9 -13 10 -30z m39 -2 c-3 -8 -6 -5 -6 6
-1 11 2 17 5 13 3 -3 4 -12 1 -19z m58 -18 c-3 -5 5 -15 19 -22 19 -8 26 -19
25 -37 0 -23 -1 -23 -8 -7 -7 19 -8 18 -14 -5 -7 -22 -8 -22 -18 -6 -6 9 -14
15 -20 12 -5 -4 -9 18 -9 50 0 51 1 55 16 41 8 -9 12 -20 9 -26z m-1658 6 c3
-3 1 -6 -6 -6 -8 0 -10 -7 -6 -21 6 -18 4 -20 -14 -14 -13 4 -28 1 -36 -5 -8
-7 -15 -9 -15 -5 0 4 -6 2 -14 -4 -11 -9 -15 -8 -20 5 -10 26 -7 32 22 47 27
13 77 16 89 3z m1490 -8 c-3 -8 -6 -5 -6 6 -1 11 2 17 5 13 3 -3 4 -12 1 -19z
m-1455 -20 c-8 -8 -9 -4 -5 13 4 13 8 18 11 10 2 -7 -1 -18 -6 -23z m635 18
c9 -9 -18 -27 -29 -20 -4 3 -8 11 -8 19 0 14 24 15 37 1z m668 -15 c-3 -6 -11
-11 -17 -11 -6 0 -6 6 2 15 14 17 26 13 15 -4z m-1217 -171 c0 -36 -4 -76 -8
-90 -5 -16 -7 -2 -4 40 3 54 2 58 -5 22 -10 -55 -33 -82 -24 -29 6 41 -3 49
-17 15 -6 -16 -7 -5 -4 37 3 46 1 54 -6 37 -6 -13 -8 -28 -4 -33 3 -5 -2 -19
-11 -31 -16 -22 -16 -22 -9 17 10 61 22 87 36 79 7 -4 8 -3 4 4 -4 6 4 31 16
55 l23 44 7 -51 c3 -28 6 -80 6 -116z m626 99 c-7 -15 -20 -29 -29 -32 -12 -5
-15 2 -15 33 0 22 5 40 11 40 7 0 8 -11 4 -30 -10 -46 3 -36 16 13 10 35 13
39 19 22 4 -12 2 -31 -6 -46z m751 51 c3 -5 1 -10 -4 -10 -6 0 -11 5 -11 10 0
6 2 10 4 10 3 0 8 -4 11 -10z m-699 -27 c-10 -10 -19 5 -10 18 6 11 8 11 12 0
2 -7 1 -15 -2 -18z m921 5 c-3 -8 -6 -5 -6 6 -1 11 2 17 5 13 3 -3 4 -12 1
-19z m-1044 -1 c4 3 7 2 7 -4 0 -17 -13 -23 -27 -12 -7 6 -13 16 -13 21 0 7 5
6 13 -1 8 -6 17 -8 20 -4z m-648 -47 c-4 -23 -9 -39 -12 -36 -3 2 -2 23 2 46
4 23 9 39 12 36 3 -2 2 -23 -2 -46z m1504 20 c8 -24 7 -30 -5 -30 -9 0 -14 10
-14 30 0 17 2 30 4 30 2 0 9 -13 15 -30z m-152 -2 c-3 -8 -6 -5 -6 6 -1 11 2
17 5 13 3 -3 4 -12 1 -19z m-20 6 c-3 -3 -12 -4 -19 -1 -8 3 -5 6 6 6 11 1 17
-2 13 -5z m-1367 -51 c0 -21 -4 -42 -8 -48 -10 -14 -45 -12 -49 2 -3 7 -10 10
-16 7 -7 -2 -17 4 -24 15 -10 17 -8 21 18 32 22 9 27 14 17 20 -8 6 1 9 25 9
36 0 37 -1 37 -37z m570 27 c0 -5 -2 -10 -4 -10 -3 0 -8 5 -11 10 -3 6 -1 10
4 10 6 0 11 -4 11 -10z m116 -14 c6 -13 8 -29 4 -35 -10 -16 -44 24 -37 44 9
22 20 19 33 -9z m132 11 c6 -5 12 -27 12 -48 0 -35 -3 -39 -24 -39 -14 0 -28
5 -31 10 -10 16 -35 12 -29 -5 4 -8 1 -15 -5 -15 -6 0 -11 6 -11 14 0 8 -5 16
-12 18 -8 3 -2 15 15 34 15 16 27 32 27 36 0 10 43 6 58 -5z m624 -36 c-9 -1
-24 -9 -33 -17 -14 -13 -18 -12 -29 1 -11 13 -11 18 0 28 10 9 14 9 17 -1 7
-18 23 -4 23 21 0 22 1 22 20 -3 18 -23 18 -25 2 -29z m124 14 c-6 -17 -36
-21 -36 -5 0 6 7 10 15 10 8 0 15 8 16 18 0 10 2 12 6 4 3 -7 2 -19 -1 -27z
m-1016 -5 c0 -5 -5 -10 -11 -10 -5 0 -7 5 -4 10 3 6 8 10 11 10 2 0 4 -4 4
-10z m1236 -9 c6 -8 16 -11 22 -7 7 4 12 2 12 -3 0 -6 7 -11 15 -11 8 0 15 7
15 15 0 8 7 15 15 15 8 0 15 -4 15 -10 0 -5 -6 -10 -12 -10 -10 0 -10 -2 0 -9
8 -4 27 -7 43 -5 20 3 29 -1 29 -11 0 -11 -11 -13 -53 -9 -49 4 -54 3 -67 -21
-13 -25 -44 -34 -55 -15 -3 6 -1 10 5 10 6 0 8 5 5 10 -3 6 -18 10 -33 10 -25
-1 -26 -2 -9 -14 17 -13 17 -14 -2 -19 -10 -2 -25 -1 -32 4 -11 6 -9 13 8 31
11 13 24 33 27 44 7 24 35 27 52 5z m451 13 c-3 -3 -12 -4 -19 -1 -8 3 -5 6 6
6 11 1 17 -2 13 -5z m-560 -18 c-3 -8 -1 -16 5 -18 7 -3 8 -10 2 -21 -8 -13
-11 -10 -20 18 -9 29 -8 35 4 35 8 0 12 -6 9 -14z m-177 -22 c0 -8 -4 -12 -10
-9 -5 3 -10 13 -10 21 0 8 5 12 10 9 6 -3 10 -13 10 -21z m490 16 c0 -5 -5
-10 -11 -10 -6 0 -9 -9 -6 -20 3 -13 0 -20 -9 -20 -17 0 -18 32 -2 48 15 15
28 16 28 2z m150 -35 c0 -25 -3 -45 -8 -45 -4 0 -6 20 -4 45 2 25 6 45 8 45 2
0 4 -20 4 -45z m-2123 3 c-3 -7 -5 -2 -5 12 0 14 2 19 5 13 2 -7 2 -19 0 -25z
m593 11 c0 -6 -4 -7 -10 -4 -5 3 -10 11 -10 16 0 6 5 7 10 4 6 -3 10 -11 10
-16z m37 -16 c-11 -10 -26 8 -20 23 5 15 7 14 15 -1 6 -9 7 -19 5 -22z m793
17 c0 -5 -5 -10 -11 -10 -5 0 -7 5 -4 10 3 6 8 10 11 10 2 0 4 -4 4 -10z
m-886 -27 c-16 -12 -31 -20 -34 -17 -2 3 3 10 13 15 9 6 15 13 13 17 -3 4 5 8
16 8 18 0 17 -3 -8 -23z m-751 0 c3 -5 2 -15 -2 -23 -5 -13 -12 -14 -41 -4
l-35 12 25 10 c31 13 47 14 53 5z m861 -8 c-7 -16 -24 -21 -24 -6 0 8 7 13 27
20 1 1 0 -6 -3 -14z m166 -43 l-1 -37 -18 22 c-17 20 -20 21 -26 6 -5 -13 -8
-14 -14 -5 -4 7 -12 12 -17 11 -29 -5 -42 2 -37 21 4 15 14 20 39 20 18 0 36
-4 39 -10 10 -16 28 -11 21 6 -3 8 -2 12 4 9 6 -3 10 -23 10 -43z m-240 6 c0
-5 -6 -8 -13 -8 -7 0 -23 -9 -35 -20 -25 -24 -89 -27 -118 -5 -10 8 -14 15 -8
15 5 0 15 -5 21 -11 14 -14 47 -4 38 11 -3 6 1 18 11 27 16 16 17 16 12 -15
-5 -35 6 -44 15 -12 3 13 10 18 21 14 12 -4 16 0 16 15 0 19 2 20 20 9 11 -7
20 -16 20 -20z m110 17 c0 -8 -7 -15 -16 -15 -14 0 -14 3 -4 15 7 8 14 15 16
15 2 0 4 -7 4 -15z m816 -21 c-4 -14 -9 -24 -12 -21 -3 2 -2 17 2 31 3 15 9
25 11 22 3 -3 2 -17 -1 -32z m-136 16 c0 -5 -2 -10 -4 -10 -3 0 -8 5 -11 10
-3 6 -1 10 4 10 6 0 11 -4 11 -10z m100 -10 c0 -11 -2 -20 -4 -20 -2 0 -6 9
-9 20 -3 11 -1 20 4 20 5 0 9 -9 9 -20z m-1622 -36 c4 2 8 -6 8 -19 1 -17 -2
-21 -17 -18 -21 6 -22 8 -12 43 6 19 8 21 11 7 2 -9 7 -15 10 -13z m769 4 c-3
-8 -6 -5 -6 6 -1 11 2 17 5 13 3 -3 4 -12 1 -19z m48 2 c-3 -5 -1 -11 5 -15 6
-4 5 -12 -5 -21 -17 -18 -20 -34 -4 -34 5 0 7 5 4 10 -3 6 1 10 9 10 9 0 16
-4 16 -9 0 -14 -32 -23 -43 -12 -12 12 2 93 14 85 5 -3 7 -9 4 -14z m995 10
c0 -5 -4 -10 -10 -10 -5 0 -10 5 -10 10 0 6 5 10 10 10 6 0 10 -4 10 -10z
m160 -24 c0 -4 7 -3 15 4 15 13 19 4 18 -37 -1 -7 3 -13 8 -13 5 0 9 -4 9 -10
0 -5 -9 -10 -20 -10 -11 0 -20 7 -20 15 0 8 -3 14 -7 13 -5 0 -19 4 -33 10
l-25 11 25 1 c22 0 23 2 8 11 -10 5 -18 17 -18 25 0 12 3 12 20 2 11 -7 20
-17 20 -22z m-813 2 c-3 -8 -6 -5 -6 6 -1 11 2 17 5 13 3 -3 4 -12 1 -19z
m711 -3 c-2 -18 -8 -25 -23 -25 -15 0 -17 2 -6 9 7 5 11 13 7 19 -5 9 1 14 21
21 2 1 2 -10 1 -24z m-158 7 c0 -13 -12 -22 -22 -16 -10 6 -1 24 13 24 5 0 9
-4 9 -8z m-820 -29 c-1 -24 -2 -26 -11 -10 -5 9 -7 22 -4 27 10 17 15 11 15
-17z m-173 11 c-3 -3 -12 -4 -19 -1 -8 3 -5 6 6 6 11 1 17 -2 13 -5z m250 -50
c-3 -31 -11 -62 -16 -67 -8 -8 -11 -6 -11 5 0 9 -5 18 -12 20 -11 4 -15 13
-20 53 -2 14 2 19 15 17 10 -2 17 3 17 13 0 8 7 15 16 15 14 0 16 -8 11 -56z
m-320 40 c-3 -3 -12 -4 -19 -1 -8 3 -5 6 6 6 11 1 17 -2 13 -5z m120 -26 c-3
-7 -5 -2 -5 12 0 14 2 19 5 13 2 -7 2 -19 0 -25z m1369 5 c-10 -10 -19 5 -10
18 6 11 8 11 12 0 2 -7 1 -15 -2 -18z m-1629 1 c-3 -3 -12 -4 -19 -1 -8 3 -5
6 6 6 11 1 17 -2 13 -5z m-349 -24 c12 0 9 -4 -8 -14 -28 -15 -40 -12 -40 10
0 8 5 12 10 9 6 -3 10 0 11 7 0 10 2 10 6 1 2 -7 12 -13 21 -13z m1908 2 c1
-7 0 -8 -3 -2 -2 5 -9 8 -14 4 -5 -3 -9 0 -9 6 0 15 23 7 26 -8z m34 -2 c0 -5
-2 -10 -4 -10 -3 0 -8 5 -11 10 -3 6 -1 10 4 10 6 0 11 -4 11 -10z m-220 -15
c0 -8 -2 -15 -4 -15 -2 0 -6 7 -10 15 -3 8 -1 15 4 15 6 0 10 -7 10 -15z
m-1785 -39 c9 -57 5 -66 -22 -55 -25 9 -31 46 -13 80 17 31 28 22 35 -25z m75
8 c0 -8 -7 -14 -15 -14 -13 0 -13 -3 -3 -20 14 -22 6 -35 -17 -27 -20 8 -21
67 0 67 8 0 15 5 15 11 0 5 5 7 10 4 6 -3 10 -13 10 -21z m650 1 c0 -8 -8 -11
-20 -8 -20 5 -25 15 -14 26 9 9 34 -4 34 -18z m1030 10 c0 -8 -4 -15 -10 -15
-5 0 -10 7 -10 15 0 8 5 15 10 15 6 0 10 -7 10 -15z m124 -6 c-6 -11 -24 -2
-24 11 0 5 7 7 15 4 8 -4 12 -10 9 -15z m-1259 -9 c4 -6 -9 -10 -32 -9 -38 1
-38 1 -8 9 17 4 31 8 32 9 1 0 5 -3 8 -9z m1332 -12 c-3 -8 -6 -5 -6 6 -1 11
2 17 5 13 3 -3 4 -12 1 -19z m-1307 -13 c-15 -18 -56 -20 -66 -4 -5 8 1 10 20
7 14 -3 29 -1 32 3 3 5 10 9 16 9 7 0 6 -6 -2 -15z m110 -5 c0 -11 -6 -20 -14
-20 -9 0 -12 7 -9 20 3 11 9 20 14 20 5 0 9 -9 9 -20z m30 -1 c0 -6 9 -8 20
-4 11 3 20 2 20 -3 0 -13 -27 -23 -45 -16 -17 7 -21 34 -5 34 6 0 10 -5 10
-11z m-410 -19 c0 -5 -5 -10 -11 -10 -5 0 -7 5 -4 10 3 6 8 10 11 10 2 0 4 -4
4 -10z m17 -12 c-3 -8 -6 -5 -6 6 -1 11 2 17 5 13 3 -3 4 -12 1 -19z m161 14
c20 -6 33 -23 16 -21 -13 2 -24 -26 -24 -60 0 -25 -4 -32 -14 -28 -8 3 -29 2
-45 -3 -18 -5 -33 -5 -36 0 -3 6 -16 5 -29 0 -21 -8 -25 -5 -30 16 -6 24 16
80 39 96 12 9 91 9 123 0z m145 -7 c4 -8 2 -17 -3 -20 -6 -4 -10 3 -10 14 0
25 6 27 13 6z m-323 -32 c0 -1 -7 0 -15 3 -8 4 -22 1 -30 -6 -12 -10 -12 -8
-2 13 10 22 12 22 29 8 10 -8 18 -17 18 -18z m1700 28 c0 -5 9 -13 20 -16 11
-3 20 -12 20 -20 0 -7 5 -15 11 -17 6 -2 9 -13 7 -23 -3 -16 -8 -13 -26 20
-20 36 -21 37 -16 10 4 -16 12 -37 19 -45 10 -11 14 -68 14 -211 l1 -197 -37
5 c-43 6 -53 17 -51 53 1 14 -1 31 -6 38 -4 7 -4 18 1 25 11 17 10 8 12 207 1
153 3 180 16 180 8 0 15 -4 15 -9z m-1424 -23 c-10 -6 -20 -7 -24 -3 -9 8 20
25 31 18 5 -3 2 -10 -7 -15z m84 12 c0 -5 -5 -10 -11 -10 -5 0 -7 5 -4 10 3 6
8 10 11 10 2 0 4 -4 4 -10z m-672 -8 c15 -10 7 -38 -14 -46 -10 -4 -14 3 -14
24 0 31 6 35 28 22z m-46 -34 c2 -59 -3 -83 -23 -103 -19 -19 -19 -19 -19 3 0
14 6 22 18 23 13 0 14 2 2 6 -8 3 -18 11 -22 17 -12 18 -9 74 5 79 28 12 37 6
39 -25z m-64 4 c2 -7 -6 -12 -17 -12 -21 0 -27 11 -14 24 9 9 26 2 31 -12z
m658 10 c6 -4 14 -16 18 -26 8 -22 -8 -36 -41 -36 -20 0 -23 5 -23 35 0 35 18
46 46 27z m134 -20 c0 -8 -1 -13 -3 -11 -1 2 -9 12 -16 22 -12 15 -12 17 3 11
9 -3 16 -13 16 -22z m-840 -36 c0 -13 -6 -24 -12 -23 -7 0 -31 -1 -53 -2 -30
-1 -36 -4 -25 -11 12 -8 11 -10 -7 -10 -17 0 -21 4 -16 17 5 13 2 15 -11 10
-10 -4 -15 -3 -11 3 3 6 18 10 32 10 16 0 27 7 30 19 10 40 73 28 73 -13z
m470 20 c0 -15 -7 -26 -20 -29 -21 -5 -29 16 -10 28 6 4 8 11 5 16 -4 5 1 9 9
9 10 0 16 -9 16 -24z m345 -14 c8 -10 7 -28 -5 -63 -14 -47 -40 -74 -40 -43 0
8 4 13 8 10 5 -3 6 22 4 55 -4 47 -2 59 9 57 8 -2 19 -9 24 -16z m-768 -12
c-1 -12 -8 -20 -19 -20 -18 0 -24 20 -11 33 14 14 32 6 30 -13z m680 -16 c-3
-4 0 -13 8 -21 8 -8 15 -25 15 -39 0 -20 -5 -24 -29 -24 -17 0 -33 5 -36 10
-4 6 -11 8 -16 5 -19 -12 -8 34 11 48 11 8 17 17 13 20 -3 4 4 7 17 7 13 0 21
-3 17 -6z m-47 -8 c0 -3 -4 -8 -10 -11 -5 -3 -10 -1 -10 4 0 6 5 11 10 11 6 0
10 -2 10 -4z m-150 -12 c0 -3 -7 -12 -15 -20 -8 -9 -15 -13 -15 -11 0 3 -3 12
-6 21 -4 12 0 16 15 16 12 0 21 -3 21 -6z m-483 -26 c-3 -8 -6 -5 -6 6 -1 11
2 17 5 13 3 -3 4 -12 1 -19z m584 12 c1 -5 2 -16 3 -22 1 -7 -3 -16 -9 -20 -6
-5 -4 -8 5 -8 13 0 13 -1 0 -10 -23 -15 -30 -12 -30 10 0 14 -7 20 -22 20 -13
0 -29 4 -37 9 -20 13 3 23 34 15 15 -4 25 -2 25 5 0 14 30 15 31 1z m-151 -20
c0 -13 -6 -20 -17 -19 -11 0 -13 3 -5 6 6 2 12 11 12 19 0 8 2 14 5 14 3 0 5
-9 5 -20z m1767 -2 c-3 -8 -6 -5 -6 6 -1 11 2 17 5 13 3 -3 4 -12 1 -19z m30
-20 c-3 -7 -5 -2 -5 12 0 14 2 19 5 13 2 -7 2 -19 0 -25z m-20 -29 c-3 -12 0
-30 6 -40 9 -15 9 -21 0 -27 -6 -4 -13 -32 -16 -62 -3 -47 -4 -44 -6 25 -1 44
-4 90 -5 103 -2 14 3 22 12 22 10 0 13 -7 9 -21z m-855 0 c11 -6 34 -12 51
-12 29 -2 31 -5 32 -42 1 -35 9 -48 66 -105 35 -36 73 -70 84 -77 32 -19 0
-33 -77 -33 -60 0 -71 -3 -99 -28 -39 -35 -47 -91 -14 -93 19 -1 19 -1 -1 -7
-15 -5 -20 -14 -18 -32 7 -57 18 -96 35 -125 11 -16 19 -36 19 -43 0 -15 16
-31 45 -48 24 -13 41 -41 32 -50 -4 -4 -15 3 -26 14 -18 22 -79 31 -95 15 -4
-5 -18 -8 -29 -9 -80 -3 -96 -6 -117 -24 -21 -18 -22 -21 -7 -44 22 -32 6 -45
-67 -55 -56 -8 -71 -1 -38 18 9 6 13 11 8 11 -5 0 -3 7 4 15 21 25 -11 19 -50
-10 -40 -30 -82 -32 -130 -6 -49 26 -63 59 -55 132 5 38 12 59 20 59 7 0 23 8
36 19 20 16 27 16 58 6 73 -26 138 -32 173 -18 18 8 36 19 39 25 5 7 10 2 14
-14 4 -15 4 -32 0 -37 -3 -6 -2 -11 4 -11 13 0 24 37 15 51 -4 7 -3 9 3 6 14
-9 30 11 48 63 12 33 12 46 3 57 -9 11 -9 16 1 22 10 6 9 10 -3 14 -10 4 -15
18 -14 43 1 27 -4 42 -21 55 -24 19 -17 19 -208 1 -46 -4 -83 -5 -83 -2 0 3
12 25 26 49 13 25 23 50 20 57 -3 7 2 18 9 24 8 7 12 16 9 21 -3 5 4 23 16 39
15 21 17 30 8 30 -10 0 -10 2 -1 8 6 4 16 20 22 35 10 24 15 27 63 28 29 1 67
5 83 9 45 12 84 11 107 -1z m-669 -27 c14 -3 7 -22 -9 -22 -8 0 -12 5 -9 10 3
6 1 10 -4 10 -6 0 -11 -4 -11 -10 0 -15 -17 -12 -23 3 -5 13 20 16 56 9z m7
-42 c0 -5 -9 -10 -20 -10 -11 0 -20 5 -20 10 0 6 9 10 20 10 11 0 20 -4 20
-10z m-125 -10 c3 -5 -1 -10 -10 -10 -9 0 -13 5 -10 10 3 6 8 10 10 10 2 0 7
-4 10 -10z m1652 -62 c-2 -13 -4 -5 -4 17 -1 22 1 32 4 23 2 -10 2 -28 0 -40z
m-10 -80 c-3 -7 -5 -2 -5 12 0 14 2 19 5 13 2 -7 2 -19 0 -25z m-1091 -163
c-8 -8 -17 -15 -20 -15 -3 0 -6 7 -6 15 0 9 9 15 21 15 18 0 19 -2 5 -15z
m1159 5 c-3 -5 -1 -10 6 -10 7 0 10 -3 6 -6 -9 -9 -28 6 -22 17 4 5 8 9 11 9
3 0 2 -4 -1 -10z m-215 -20 c0 -5 -7 -10 -16 -10 -8 0 -12 5 -9 10 3 6 10 10
16 10 5 0 9 -4 9 -10z m102 -5 c16 2 31 -1 34 -7 4 -5 -11 -8 -37 -6 -27 2
-44 9 -47 18 -4 12 -2 13 9 4 8 -7 26 -11 41 -9z m68 -20 c0 -8 -2 -15 -4 -15
-2 0 -6 7 -10 15 -3 8 -1 15 4 15 6 0 10 -7 10 -15z m48 -15 c35 -34 30 -41
-5 -8 -20 18 -23 19 -23 5 0 -9 -5 -17 -10 -17 -7 0 -7 6 -1 19 6 10 7 21 4
25 -3 3 -4 6 0 6 3 0 19 -13 35 -30z m50 10 c3 -7 0 -10 -6 -6 -6 3 -13 0 -15
-6 -3 -7 -6 -2 -6 10 -1 25 19 26 27 2z m187 -1 c20 0 20 0 0 -9 -33 -14 -45
-11 -45 12 0 17 3 19 12 10 7 -7 21 -12 33 -13z m105 11 c0 -5 -8 -10 -17 -10
-15 0 -16 2 -3 10 19 12 20 12 20 0z m88 -10 c-12 -19 -28 -27 -28 -14 0 6 30
33 38 34 1 0 -3 -9 -10 -20z m74 -2 c-7 -7 -12 -8 -12 -2 0 14 12 26 19 19 2
-3 -1 -11 -7 -17z m-1932 8 c0 -2 -7 -6 -15 -10 -8 -3 -15 -1 -15 4 0 6 7 10
15 10 8 0 15 -2 15 -4z m270 -6 c-20 -13 -43 -13 -35 0 3 6 16 10 28 10 18 0
19 -2 7 -10z m457 4 c-3 -3 -12 -4 -19 -1 -8 3 -5 6 6 6 11 1 17 -2 13 -5z
m453 -8 c0 -8 -7 -16 -15 -20 -12 -4 -13 -2 -2 14 14 24 17 25 17 6z m-134
-12 c18 -14 18 -15 -6 -8 -31 8 -50 24 -29 24 8 0 24 -7 35 -16z m232 -18 c29
-9 67 -13 84 -9 29 6 30 5 18 -18 -10 -17 -10 -24 -1 -27 6 -2 11 -8 11 -14 0
-5 -13 0 -29 11 -35 25 -39 26 -43 5 -3 -14 -7 -13 -31 6 -21 17 -31 20 -40
11 -14 -14 -47 -14 -47 0 0 7 -8 18 -17 26 -10 8 -12 12 -5 8 11 -6 17 6 13
28 -1 4 7 3 16 -3 10 -5 42 -16 71 -24z m42 30 c0 -2 -7 -7 -16 -10 -8 -3 -12
-2 -9 4 6 10 25 14 25 6z m399 -22 c16 10 14 -9 -3 -23 -11 -9 -15 -8 -20 5
-9 24 -7 41 3 25 5 -7 14 -10 20 -7z m164 10 c-7 -3 -9 -13 -6 -22 4 -14 3
-14 -5 -2 -12 16 -7 30 11 29 9 0 9 -2 0 -5z m-213 -22 c0 -4 -9 -8 -19 -8
-15 0 -17 3 -9 13 10 12 28 9 28 -5z m305 8 c-3 -5 -16 -10 -28 -9 -20 1 -20
2 3 9 14 4 26 8 28 9 2 1 0 -3 -3 -9z m-212 -50 c-3 -10 -11 -16 -18 -14 -7 3
-16 1 -20 -5 -3 -6 1 -11 9 -11 8 0 18 -5 21 -11 12 -18 -28 -6 -51 16 -23 22
-12 39 19 29 13 -4 20 0 24 16 4 14 8 18 13 10 4 -7 5 -20 3 -30z m197 26 c0
-3 -4 -8 -10 -11 -5 -3 -10 -1 -10 4 0 6 5 11 10 11 6 0 10 -2 10 -4z m-2046
-22 c5 -14 4 -15 -9 -4 -17 14 -19 20 -6 20 5 0 12 -7 15 -16z m1562 -60 c1
-8 -2 -14 -7 -14 -5 0 -9 5 -9 10 0 6 -8 10 -19 10 -30 0 -45 24 -30 49 13 19
14 19 38 -10 14 -17 26 -37 27 -45z m142 53 c8 -10 6 -13 -8 -14 -13 -1 -17 3
-13 13 6 17 8 17 21 1z m182 -17 c0 -5 -5 -10 -11 -10 -5 0 -7 5 -4 10 3 6 8
10 11 10 2 0 4 -4 4 -10z m-485 -20 c3 -5 1 -10 -4 -10 -6 0 -11 5 -11 10 0 6
2 10 4 10 3 0 8 -4 11 -10z m225 -6 c0 -2 -12 -4 -26 -4 -14 0 -23 4 -20 9 6
8 46 4 46 -5z m-1580 -48 c0 -9 -9 -14 -20 -13 -20 1 -25 9 -13 20 12 12 33 7
33 -7z m1305 -6 c3 -5 1 -10 -4 -10 -6 0 -11 5 -11 10 0 6 2 10 4 10 3 0 8 -4
11 -10z m-315 -30 c10 -14 15 -26 10 -28 -6 -2 -10 -17 -10 -33 0 -26 -5 -30
-45 -41 -25 -7 -45 -15 -45 -19 0 -21 -40 -16 -96 12 -53 26 -65 37 -73 65 -5
18 -7 43 -4 55 6 20 10 21 125 18 113 -4 120 -5 138 -29z m350 -24 c0 -2 -7
-7 -16 -10 -8 -3 -12 -2 -9 4 6 10 25 14 25 6z m43 -16 c-9 -11 -19 -17 -21
-15 -6 6 18 35 29 35 5 0 1 -9 -8 -20z m-37 -36 c-1 -17 -4 -19 -19 -10 -10 6
-13 12 -6 15 8 2 7 6 -2 12 -10 6 -8 8 7 7 15 -2 21 -8 20 -24z m184 -8 c0 -2
-7 -7 -16 -10 -8 -3 -12 -2 -9 4 6 10 25 14 25 6z m-73 -22 c-3 -3 -12 -4 -19
-1 -8 3 -5 6 6 6 11 1 17 -2 13 -5z m-1412 -63 c11 -27 -4 -23 -39 11 -20 19
-36 38 -36 41 0 10 69 -37 75 -52z m1197 32 c-6 -2 -10 -9 -6 -14 3 -5 0 -9
-5 -9 -12 0 -14 13 -4 23 3 4 11 7 17 6 6 0 5 -3 -2 -6z m233 -33 c3 -5 -1
-10 -10 -10 -9 0 -13 5 -10 10 3 6 8 10 10 10 2 0 7 -4 10 -10z m-251 -35
c-25 -19 -40 -19 -24 0 7 8 20 15 28 15 13 0 12 -3 -4 -15z m-640 -53 c13 -22
-14 -33 -74 -30 -61 3 -92 21 -53 31 31 8 122 7 127 -1z m-540 -8 c8 -3 12
-12 9 -21 -5 -12 -7 -12 -14 -1 -7 10 -9 10 -9 -2 0 -13 -2 -13 -9 0 -6 8 -7
18 -5 22 6 10 8 10 28 2z m520 -119 c74 -17 84 -27 58 -53 -16 -16 -29 -19
-59 -15 -28 4 -42 1 -52 -11 -8 -9 -29 -16 -49 -16 -37 0 -102 34 -102 54 0
12 28 40 51 49 25 10 93 7 153 -8z m-1384 -145 c21 -7 19 -8 -17 -9 -23 -1
-45 4 -48 9 -7 12 29 12 65 0z m122 -22 c-4 -4 -21 -3 -37 2 -30 9 -30 9 7 7
21 0 34 -5 30 -9z m43 2 c-3 -5 -10 -10 -16 -10 -5 0 -9 5 -9 10 0 6 7 10 16
10 8 0 12 -4 9 -10z m68 -17 c-7 -2 -21 -2 -30 0 -10 3 -4 5 12 5 17 0 24 -2
18 -5z m157 -4 c47 -6 103 -12 125 -14 59 -6 382 -44 438 -51 31 -5 47 -12 47
-21 0 -11 -8 -13 -27 -9 -33 6 -194 27 -467 61 -109 13 -204 29 -209 34 -13
13 -12 13 93 0z m-113 -5 c-3 -3 -12 -4 -19 -1 -8 3 -5 6 6 6 11 1 17 -2 13
-5z m2220 -20 c-3 -3 -12 -4 -19 -1 -8 3 -5 6 6 6 11 1 17 -2 13 -5z m-2547
-64 c11 -7 7 -10 -17 -10 -18 0 -33 5 -33 10 0 13 30 13 50 0z m2807 -15 c-4
-8 -2 -17 4 -20 28 -18 -28 -33 -66 -19 -13 5 -8 12 22 29 47 28 46 28 40 10z
m-897 -45 c9 -22 20 -30 39 -31 14 -1 31 -2 36 -4 6 -1 40 -3 78 -3 65 -2 67
-3 55 -23 -14 -21 -17 -21 -140 -3 l-37 6 33 -69 c48 -98 71 -226 81 -458 3
-71 8 -147 11 -167 5 -32 3 -38 -12 -38 -26 0 -189 86 -279 148 -117 80 -118
80 -175 32 -26 -22 -52 -40 -56 -40 -5 0 -21 -10 -36 -23 -14 -12 -36 -30 -47
-39 -12 -10 -21 -14 -21 -8 0 14 59 66 115 103 57 37 106 88 144 150 14 24 32
52 38 63 7 10 42 78 78 150 72 145 89 211 69 269 -10 29 -9 34 1 25 7 -6 18
-24 25 -40z m-1896 -38 c2 -4 -4 -8 -15 -8 -10 0 -19 4 -19 8 0 4 6 8 14 8 8
0 17 -4 20 -8z m126 -12 c0 -5 -7 -10 -16 -10 -8 0 -12 5 -9 10 3 6 10 10 16
10 5 0 9 -4 9 -10z m1867 -36 c-3 -3 -12 -4 -19 -1 -8 3 -5 6 6 6 11 1 17 -2
13 -5z m8 -52 c2 -12 0 -22 -6 -22 -5 0 -9 6 -9 14 0 8 -3 23 -6 33 -5 13 -4
15 5 7 6 -6 13 -20 16 -32z m870 -10 c-3 -3 -11 0 -18 7 -9 10 -8 11 6 5 10
-3 15 -9 12 -12z m-835 -12 c0 -5 -5 -10 -11 -10 -5 0 -7 5 -4 10 3 6 8 10 11
10 2 0 4 -4 4 -10z m-701 -544 c8 -10 9 -16 1 -21 -16 -10 -50 4 -50 21 0 18
34 18 49 0z"/>
<path d="M380 2835 c0 -8 2 -15 4 -15 2 0 6 7 10 15 3 8 1 15 -4 15 -6 0 -10
-7 -10 -15z"/>
<path d="M225 2560 c3 -5 8 -10 11 -10 2 0 4 5 4 10 0 6 -5 10 -11 10 -5 0 -7
-4 -4 -10z"/>
<path d="M2353 2135 c0 -22 2 -30 4 -17 2 12 2 30 0 40 -3 9 -5 -1 -4 -23z"/>
<path d="M131 2454 c0 -11 3 -14 6 -6 3 7 2 16 -1 19 -3 4 -6 -2 -5 -13z"/>
<path d="M2278 1823 c7 -3 16 -2 19 1 4 3 -2 6 -13 5 -11 0 -14 -3 -6 -6z"/>
<path d="M2477 1803 c-8 -12 9 -36 21 -32 7 3 6 10 -3 22 -7 10 -15 14 -18 10z"/>
<path d="M510 3086 c0 -2 7 -9 15 -16 12 -10 15 -10 15 4 0 9 -7 16 -15 16 -8
0 -15 -2 -15 -4z"/>
<path d="M17 3033 c-22 -29 -18 -38 7 -20 10 7 17 20 15 29 -3 13 -8 11 -22
-9z"/>
<path d="M1408 2923 c6 -2 18 -2 25 0 6 3 1 5 -13 5 -14 0 -19 -2 -12 -5z"/>
<path d="M725 2909 c-9 -14 -2 -20 14 -10 8 6 9 11 3 15 -6 3 -14 1 -17 -5z"/>
<path d="M2690 2845 c0 -8 5 -15 10 -15 6 0 10 7 10 15 0 8 -4 15 -10 15 -5 0
-10 -7 -10 -15z"/>
<path d="M2625 2833 c-73 -15 -71 -14 -52 -24 11 -7 24 -6 37 1 11 6 24 9 29
6 4 -3 8 1 8 9 0 8 -1 14 -1 14 -1 -1 -10 -3 -21 -6z"/>
<path d="M567 2788 c-3 -12 -2 -29 3 -37 7 -12 9 -6 10 22 0 42 -5 48 -13 15z"/>
<path d="M2898 2703 c12 -2 30 -2 40 0 9 3 -1 5 -23 4 -22 0 -30 -2 -17 -4z"/>
<path d="M2780 2658 c0 -4 24 -7 53 -7 54 1 49 5 -15 11 -21 2 -38 0 -38 -4z"/>
<path d="M38 2523 c6 -2 18 -2 25 0 6 3 1 5 -13 5 -14 0 -19 -2 -12 -5z"/>
<path d="M5 2059 c3 -38 26 -47 37 -14 6 17 7 16 5 -5 -1 -18 -9 -26 -24 -28
-21 -3 -23 -9 -23 -57 0 -29 3 -60 6 -69 9 -22 37 -20 52 4 17 28 47 25 71 -7
l22 -28 15 23 c20 27 44 28 74 2 13 -11 26 -20 30 -20 5 0 11 46 15 101 8 115
6 119 -61 119 -22 0 -82 3 -131 6 l-91 7 3 -34z m85 -24 c0 -14 -4 -25 -10
-25 -5 0 -10 11 -10 25 0 14 5 25 10 25 6 0 10 -11 10 -25z m21 -18 c-8 -8
-11 -5 -11 9 0 27 14 41 18 19 2 -9 -1 -22 -7 -28z m33 12 c-2 -4 0 -10 6 -14
5 -3 10 3 10 14 0 25 20 28 21 4 1 -17 2 -17 6 0 5 19 23 23 23 5 0 -23 -14
-33 -47 -36 -31 -2 -33 0 -33 30 0 24 3 29 9 18 6 -8 8 -17 5 -21z m93 6 c0
-8 -4 -15 -9 -15 -4 0 -8 7 -8 15 0 8 4 15 8 15 5 0 9 -7 9 -15z m33 -10 c0
-14 -4 -25 -10 -25 -5 0 -10 11 -10 25 0 14 5 25 10 25 6 0 10 -11 10 -25z
m-221 -66 c1 20 3 21 16 11 10 -9 15 -9 15 -1 0 6 4 11 9 11 4 0 6 -11 3 -25
-5 -31 13 -33 23 -2 l7 22 8 -25 c8 -24 8 -24 9 -2 1 30 16 28 17 -3 2 -23 -2
-25 -37 -25 -30 0 -39 4 -39 17 0 13 -3 14 -12 5 -19 -19 -48 -15 -48 6 0 29
14 36 21 10 l7 -23 1 24z"/>
<path d="M0 1816 c0 -13 14 -16 79 -16 43 0 106 -3 140 -6 49 -6 61 -4 61 7 0
8 -8 15 -17 15 -10 0 -73 4 -140 8 -108 6 -123 5 -123 -8z"/>
<path d="M373 943 c9 -2 23 -2 30 0 6 3 -1 5 -18 5 -16 0 -22 -2 -12 -5z"/>
<path d="M480 910 c0 -5 5 -10 10 -10 6 0 10 5 10 10 0 6 -4 10 -10 10 -5 0
-10 -4 -10 -10z"/>
<path d="M870 880 c-11 -7 -5 -8 20 -4 43 8 51 14 19 14 -13 0 -31 -5 -39 -10z"/>
<path d="M780 860 c-8 -6 -31 -10 -51 -10 -20 0 -39 -3 -43 -7 -4 -5 -24 -13
-44 -20 -37 -11 -37 -11 13 -6 83 8 158 33 144 47 -2 3 -11 1 -19 -4z"/>
<path d="M1120 846 c0 -8 -6 -17 -12 -19 -10 -4 -10 -6 -1 -6 7 -1 17 8 23 19
7 14 7 20 0 20 -5 0 -10 -6 -10 -14z"/>
<path d="M1050 719 c-29 -12 -70 -48 -70 -62 0 -5 -8 -15 -17 -22 -11 -8 -18
-31 -21 -71 -3 -48 1 -70 21 -114 18 -40 25 -72 25 -118 0 -35 3 -66 6 -69 3
-4 6 15 6 40 0 26 4 47 9 47 4 0 11 30 15 68 6 55 40 216 62 295 6 19 0 20
-36 6z m-15 -71 c-14 -29 -25 -69 -25 -88 -1 -19 -4 -53 -9 -75 -6 -36 -8 -37
-13 -15 -4 14 -10 49 -14 77 -5 44 -4 54 10 59 9 3 16 12 16 19 0 12 47 75 55
75 2 0 -7 -24 -20 -52z"/>
<path d="M2603 713 c9 -2 23 -2 30 0 6 3 -1 5 -18 5 -16 0 -22 -2 -12 -5z"/>
<path d="M2760 710 c-42 -5 -41 -6 33 -14 43 -4 81 -5 84 -2 4 3 -7 6 -23 6
-17 0 -34 4 -39 8 -6 4 -30 5 -55 2z"/>
<path d="M2490 700 c8 -5 20 -10 25 -10 6 0 3 5 -5 10 -8 5 -19 10 -25 10 -5
0 -3 -5 5 -10z"/>
<path d="M2958 703 c7 -3 16 -2 19 1 4 3 -2 6 -13 5 -11 0 -14 -3 -6 -6z"/>
<path d="M0 557 c0 -156 0 -157 56 -157 13 0 24 -4 24 -10 0 -5 -6 -10 -13
-10 -7 0 -25 -6 -40 -12 -27 -13 -27 -13 -27 -127 l0 -114 49 74 c81 123 146
168 396 274 213 91 410 183 403 190 -5 5 -210 14 -660 30 l-188 7 0 -145z"/>
<path d="M2401 669 c16 -16 37 -22 75 -24 33 -2 54 1 54 7 0 7 -17 8 -47 4
-33 -4 -43 -3 -33 4 8 5 31 10 50 11 l35 1 -34 8 c-20 5 -45 4 -59 -1 -17 -6
-29 -6 -36 1 -5 5 -14 10 -18 10 -4 0 2 -10 13 -21z"/>
<path d="M2727 669 c8 -8 16 -8 30 0 16 9 14 10 -11 11 -22 0 -27 -3 -19 -11z"/>
<path d="M2955 615 c-22 -19 -34 -35 -27 -35 16 0 91 51 92 63 0 16 -27 4 -65
-28z"/>
<path d="M2645 620 c3 -5 19 -10 35 -10 16 0 32 5 35 10 4 6 -10 10 -35 10
-25 0 -39 -4 -35 -10z"/>
<path d="M2520 605 c14 -8 30 -14 35 -14 6 0 -1 6 -15 14 -14 8 -29 14 -35 14
-5 0 1 -6 15 -14z"/>
<path d="M2778 603 c7 -3 16 -2 19 1 4 3 -2 6 -13 5 -11 0 -14 -3 -6 -6z"/>
<path d="M2585 560 c3 -5 11 -10 16 -10 6 0 7 5 4 10 -3 6 -11 10 -16 10 -6 0
-7 -4 -4 -10z"/>
<path d="M2630 535 c7 -8 20 -15 28 -15 13 0 12 3 -4 15 -25 19 -40 19 -24 0z"/>
<path d="M3070 520 c-13 -8 -12 -10 3 -10 9 0 17 5 17 10 0 12 -1 12 -20 0z"/>
<path d="M2702 502 c-8 -6 -1 -14 24 -26 20 -9 38 -15 41 -13 2 3 -9 11 -26
18 -16 7 -27 17 -25 21 6 10 2 10 -14 0z"/>
<path d="M3018 474 c-16 -8 -28 -19 -28 -24 0 -16 14 -11 39 15 27 29 26 30
-11 9z"/>
<path d="M3060 445 c-7 -8 -19 -15 -26 -15 -8 0 -14 -6 -14 -14 0 -8 -13 -20
-30 -28 -16 -7 -30 -16 -30 -20 0 -4 -7 -5 -15 -2 -31 12 -14 -14 28 -42 23
-16 55 -39 70 -51 16 -13 33 -23 38 -23 5 0 9 29 9 65 0 70 1 69 -65 67 -11
-1 -3 5 18 11 21 7 35 16 31 20 -4 4 -2 7 4 7 7 0 12 9 12 20 0 24 -13 26 -30
5z"/>
<path d="M2855 405 l59 -36 23 26 c19 19 20 25 8 25 -9 0 -18 -7 -21 -15 -8
-21 -18 -19 -64 10 -22 14 -45 25 -52 25 -6 0 15 -16 47 -35z"/>
</g>
</svg>
